<svg width="1280" height="720" viewBox="0 0 1280 720" fill="none" xmlns="http://www.w3.org/2000/svg">
<rect width="1280" height="720" fill="#1F2032"/>
<path d="M529.272 487.283C527.908 487.283 526.578 487.87 525.621 488.898C524.657 489.918 524.105 491.341 524.105 492.787C524.105 494.233 524.657 495.656 525.621 496.677C526.578 497.704 527.908 498.291 529.272 498.291C530.629 498.291 531.965 497.704 532.923 496.677C533.887 495.656 534.438 494.233 534.438 492.787C534.438 491.341 533.887 489.918 532.923 488.898C531.965 487.87 530.629 487.283 529.272 487.283Z" fill="#F68B1F"/>
<path d="M812.181 430.187L771.972 473.024C768.69 470.897 764.84 469.671 760.726 469.671C756.43 469.671 752.426 471.014 749.052 473.317C748.803 472.575 748.405 471.877 747.847 471.284L692.74 412.575C692.486 412.305 692.211 412.068 691.923 411.866L695.585 345.549C696.561 345.348 697.494 344.844 698.251 344.038L769.891 267.717C770.158 267.431 770.389 267.121 770.585 266.794C771.056 266.537 771.521 266.268 771.972 265.975L812.181 308.812C813.189 309.886 814.512 310.424 815.834 310.424C817.156 310.424 818.478 309.887 819.487 308.812C821.504 306.663 821.504 303.178 819.487 301.029L779.277 258.192C781.274 254.696 782.425 250.595 782.425 246.212C782.425 233.466 772.691 223.096 760.726 223.096C756.612 223.096 752.762 224.322 749.481 226.449L709.272 183.612C707.254 181.463 703.983 181.463 701.966 183.612C699.949 185.762 699.949 189.246 701.966 191.395L742.176 234.232C740.179 237.728 739.027 241.829 739.027 246.212C739.027 247.187 739.091 248.145 739.201 249.088L687.467 287.668C686.052 285.542 684.497 283.498 682.784 281.562C672.87 270.36 659.451 264.191 645 264.191C630.549 264.191 617.13 270.36 607.216 281.562C605.503 283.498 603.948 285.541 602.533 287.668L550.799 249.088C550.909 248.145 550.973 247.187 550.973 246.212C550.973 241.829 549.821 237.728 547.825 234.232L588.034 191.395C590.052 189.246 590.052 185.762 588.034 183.612C586.017 181.463 582.746 181.463 580.729 183.612L540.519 226.449C537.238 224.322 533.388 223.096 529.274 223.096C517.309 223.096 507.575 233.466 507.575 246.212C507.575 250.595 508.726 254.696 510.723 258.192L470.513 301.029C468.496 303.178 468.496 306.663 470.513 308.812C471.522 309.887 472.844 310.424 474.166 310.424C475.488 310.424 476.811 309.887 477.819 308.812L518.028 265.975C518.479 266.268 518.944 266.537 519.415 266.794C519.612 267.121 519.841 267.431 520.109 267.717L591.749 344.038C592.506 344.844 593.438 345.348 594.415 345.549L598.077 411.866C597.789 412.068 597.514 412.305 597.26 412.575L542.153 471.284C541.595 471.878 541.197 472.576 540.948 473.317C537.574 471.014 533.57 469.671 529.274 469.671C525.16 469.671 521.31 470.897 518.028 473.024L477.819 430.187C475.801 428.038 472.53 428.038 470.513 430.187C468.496 432.337 468.496 435.822 470.513 437.97L510.723 480.807C508.726 484.303 507.575 488.404 507.575 492.787C507.575 505.533 517.309 515.903 529.274 515.903C533.388 515.903 537.238 514.678 540.519 512.551L580.729 555.388C581.737 556.463 583.06 557 584.382 557C585.703 557 587.026 556.463 588.034 555.388C590.052 553.238 590.052 549.753 588.034 547.604L548.858 505.868L611.853 469.732C616.237 472.934 621.53 474.808 627.209 474.808H662.791C668.47 474.808 673.763 472.934 678.147 469.732L741.142 505.868L701.965 547.604C699.948 549.754 699.948 553.239 701.965 555.388C702.974 556.463 704.297 557 705.618 557C706.94 557 708.263 556.463 709.271 555.388L749.481 512.551C752.762 514.678 756.612 515.903 760.726 515.903C772.691 515.903 782.425 505.533 782.425 492.787C782.425 488.404 781.274 484.303 779.277 480.808L819.487 437.971C821.504 435.822 821.504 432.337 819.487 430.188C817.47 428.038 814.198 428.038 812.181 430.187ZM740.541 479.067C741.099 479.661 741.754 480.085 742.45 480.35C740.387 483.78 739.151 487.823 739.043 492.162L685.646 461.531C688.12 457.459 689.669 452.681 689.954 447.524L691.12 426.417L740.541 479.067ZM760.726 234.103C766.993 234.103 772.092 239.535 772.092 246.212C772.092 252.889 766.993 258.321 760.726 258.321C754.459 258.321 749.36 252.889 749.36 246.212C749.36 239.535 754.459 234.103 760.726 234.103ZM743.077 259.634C745.872 263.793 749.924 266.926 754.64 268.396L696.42 330.42L696.843 322.765C697.336 313.847 695.849 305.182 692.588 297.287L743.077 259.634ZM614.734 289.114C615.712 288.009 616.733 286.967 617.791 285.987V299.048C617.791 302.088 620.104 304.552 622.958 304.552C625.811 304.552 628.124 302.088 628.124 299.048V281.437C628.124 280.64 627.961 279.884 627.676 279.2C633.028 276.586 638.896 275.199 645 275.199C651.104 275.199 656.972 276.586 662.325 279.2C662.039 279.884 661.877 280.64 661.877 281.437V299.048C661.877 302.088 664.19 304.552 667.043 304.552C669.896 304.552 672.209 302.088 672.209 299.048V285.987C673.268 286.967 674.289 288.009 675.267 289.114C683.208 298.087 687.207 309.808 686.527 322.119L679.639 446.876C679.319 452.668 676.435 457.69 672.209 460.728V322.533C672.209 319.493 669.896 317.029 667.043 317.029C664.19 317.029 661.877 319.493 661.877 322.533V463.433C661.877 463.557 661.886 463.678 661.894 463.8H628.106C628.114 463.678 628.123 463.557 628.123 463.433V322.533C628.123 319.493 625.81 317.029 622.957 317.029C620.104 317.029 617.791 319.493 617.791 322.533V460.728C613.565 457.69 610.682 452.668 610.361 446.876L603.473 322.119C602.793 309.808 606.792 298.087 614.734 289.114ZM529.274 234.103C535.541 234.103 540.64 239.535 540.64 246.212C540.64 252.889 535.541 258.321 529.274 258.321C523.007 258.321 517.908 252.889 517.908 246.212C517.908 239.535 523.007 234.103 529.274 234.103ZM535.36 268.396C540.076 266.926 544.129 263.793 546.923 259.634L597.414 297.287C594.153 305.182 592.666 313.847 593.158 322.765L593.581 330.42L535.36 268.396ZM598.882 426.416L600.047 447.523C600.332 452.68 601.881 457.459 604.355 461.531L550.958 492.161C550.849 487.822 549.613 483.779 547.55 480.35C548.247 480.084 548.902 479.661 549.46 479.066L598.882 426.416ZM529.274 504.896C523.007 504.896 517.908 499.464 517.908 492.787C517.908 486.11 523.007 480.678 529.274 480.678C535.541 480.678 540.64 486.11 540.64 492.787C540.64 499.464 535.541 504.896 529.274 504.896ZM760.726 504.896C754.459 504.896 749.36 499.464 749.36 492.787C749.36 486.11 754.459 480.678 760.726 480.678C766.993 480.678 772.092 486.11 772.092 492.787C772.092 499.464 766.993 504.896 760.726 504.896Z" fill="#F68B1F"/>
<path d="M760.726 487.283C759.369 487.283 758.033 487.87 757.075 488.898C756.111 489.918 755.56 491.341 755.56 492.787C755.56 494.233 756.111 495.656 757.075 496.677C758.033 497.704 759.369 498.291 760.726 498.291C762.083 498.291 763.419 497.704 764.377 496.677C765.341 495.656 765.892 494.233 765.892 492.787C765.892 491.341 765.341 489.918 764.377 488.898C763.419 487.87 762.083 487.283 760.726 487.283Z" fill="#F68B1F"/>
<path d="M760.726 251.716C762.083 251.716 763.419 251.129 764.377 250.101C765.341 249.081 765.892 247.658 765.892 246.212C765.892 244.766 765.341 243.343 764.377 242.323C763.419 241.295 762.083 240.708 760.726 240.708C759.369 240.708 758.033 241.295 757.075 242.323C756.111 243.343 755.56 244.766 755.56 246.212C755.56 247.658 756.111 249.081 757.075 250.101C758.033 251.129 759.369 251.716 760.726 251.716Z" fill="#F68B1F"/>
<path d="M529.272 251.716C530.629 251.716 531.965 251.129 532.923 250.101C533.887 249.081 534.438 247.658 534.438 246.212C534.438 244.766 533.887 243.343 532.923 242.323C531.965 241.295 530.629 240.708 529.272 240.708C527.908 240.708 526.578 241.295 525.621 242.323C524.657 243.343 524.105 244.766 524.105 246.212C524.105 247.658 524.657 249.081 525.621 250.101C526.578 251.129 527.908 251.716 529.272 251.716Z" fill="#F68B1F"/>
<path d="M644.998 451.324C647.852 451.324 650.165 448.861 650.165 445.82V428.208C650.165 425.168 647.852 422.704 644.998 422.704C642.145 422.704 639.832 425.168 639.832 428.208V445.82C639.832 448.861 642.145 451.324 644.998 451.324Z" fill="#F68B1F"/>
<path d="M247.8 328C257.333 328 265.233 331.4 271.5 338.2C277.833 344.933 281 353.2 281 363C281 372.8 277.833 381.1 271.5 387.9C265.233 394.633 257.333 398 247.8 398H220.5V328H247.8ZM247.8 389.2C254.933 389.2 260.767 386.7 265.3 381.7C269.833 376.7 272.1 370.467 272.1 363C272.1 355.533 269.833 349.3 265.3 344.3C260.767 339.3 254.933 336.8 247.8 336.8H229.8V389.2H247.8ZM333.777 398L318.077 371.2H301.577V398H292.277V328H320.277C326.277 328 331.411 330.133 335.677 334.4C339.944 338.6 342.077 343.7 342.077 349.7C342.077 354.233 340.711 358.367 337.977 362.1C335.311 365.833 331.844 368.467 327.577 370L344.077 398H333.777ZM301.577 336.7V362.8H320.277C323.744 362.8 326.677 361.533 329.077 359C331.544 356.4 332.777 353.3 332.777 349.7C332.777 346.1 331.544 343.033 329.077 340.5C326.677 337.967 323.744 336.7 320.277 336.7H301.577ZM411.317 388.7C404.317 395.767 395.751 399.3 385.617 399.3C375.484 399.3 366.917 395.767 359.917 388.7C352.917 381.633 349.417 373.067 349.417 363C349.417 352.867 352.917 344.3 359.917 337.3C366.917 330.233 375.484 326.7 385.617 326.7C395.751 326.7 404.317 330.233 411.317 337.3C418.384 344.3 421.917 352.867 421.917 363C421.917 373.067 418.384 381.633 411.317 388.7ZM366.317 382.4C371.517 387.6 377.951 390.2 385.617 390.2C393.284 390.2 399.684 387.6 404.817 382.4C410.017 377.133 412.617 370.667 412.617 363C412.617 355.267 410.017 348.8 404.817 343.6C399.684 338.333 393.284 335.7 385.617 335.7C377.951 335.7 371.517 338.333 366.317 343.6C361.184 348.8 358.617 355.267 358.617 363C358.617 370.667 361.184 377.133 366.317 382.4ZM476.598 328H485.898V398H478.398L442.398 345.7V398H433.098V328H440.598L476.598 380.2V328ZM510.171 389.2H542.671V398H500.871V328H542.171V336.8H510.171V358.3H539.671V367H510.171V389.2Z" fill="white"/>
<path d="M797.4 402.3C786.8 402.3 778.033 398.8 771.1 391.8C764.233 384.8 760.8 376.2 760.8 366C760.8 355.8 764.233 347.2 771.1 340.2C778.033 333.2 786.8 329.7 797.4 329.7C803.8 329.7 809.667 331.233 815 334.3C820.4 337.367 824.6 341.5 827.6 346.7L819.5 351.4C817.5 347.533 814.5 344.467 810.5 342.2C806.567 339.867 802.2 338.7 797.4 338.7C789.333 338.7 782.733 341.3 777.6 346.5C772.533 351.7 770 358.2 770 366C770 373.733 772.533 380.2 777.6 385.4C782.733 390.6 789.333 393.2 797.4 393.2C802.2 393.2 806.567 392.067 810.5 389.8C814.5 387.467 817.5 384.4 819.5 380.6L827.6 385.2C824.667 390.4 820.5 394.567 815.1 397.7C809.7 400.767 803.8 402.3 797.4 402.3ZM847.433 392.2H877.633V401H838.133V331H847.433V392.2ZM930.187 395.6C925.32 400.067 919.02 402.3 911.287 402.3C903.553 402.3 897.22 400.067 892.287 395.6C887.42 391.067 884.987 385.033 884.987 377.5V331H894.287V377.1C894.287 382.033 895.753 385.967 898.687 388.9C901.62 391.767 905.82 393.2 911.287 393.2C916.753 393.2 920.953 391.767 923.887 388.9C926.82 385.967 928.287 382.033 928.287 377.1V331H937.487V377.5C937.487 385.033 935.053 391.067 930.187 395.6ZM991.707 364.7C994.907 366.233 997.44 368.433 999.307 371.3C1001.24 374.167 1002.21 377.467 1002.21 381.2C1002.21 386.8 1000.24 391.5 996.307 395.3C992.374 399.1 987.574 401 981.907 401H951.707V331H979.707C985.174 331 989.807 332.833 993.607 336.5C997.407 340.167 999.307 344.7 999.307 350.1C999.307 356.3 996.774 361.167 991.707 364.7ZM979.707 339.7H961.007V361.1H979.707C982.64 361.1 985.107 360.067 987.107 358C989.107 355.933 990.107 353.4 990.107 350.4C990.107 347.467 989.074 344.967 987.007 342.9C985.007 340.767 982.574 339.7 979.707 339.7ZM981.907 392.3C985.04 392.3 987.674 391.2 989.807 389C991.94 386.8 993.007 384.1 993.007 380.9C993.007 377.767 991.907 375.1 989.707 372.9C987.574 370.7 984.974 369.6 981.907 369.6H961.007V392.3H981.907Z" fill="white"/>
<path d="M233.856 303H457C459.761 303 462 305.239 462 308V308C462 310.761 459.761 313 457 313H219L233.856 303Z" fill="#F68B1F"/>
<path d="M995.118 419H833C830.239 419 828 421.239 828 424V424C828 426.761 830.239 429 833 429H1006L995.118 419Z" fill="#F68B1F"/>
<path d="M235.856 421H459C461.761 421 464 423.239 464 426V426C464 428.761 461.761 431 459 431H221L235.856 421Z" fill="#F68B1F"/>
<path d="M995.118 303H833C830.239 303 828 305.239 828 308V308C828 310.761 830.239 313 833 313H1006L995.118 303Z" fill="#F68B1F"/>
<path d="M645.576 283.319L639.775 301H635.103L643.027 279.672H646.001L645.576 283.319ZM650.396 301L644.58 283.319L644.111 279.672H647.114L655.083 301H650.396ZM650.132 293.061V296.503H638.867V293.061H650.132Z" fill="white"/>
<path d="M641.299 310.659V331.987H636.904V310.659H641.299ZM654.072 310.659L645.62 321.191L640.742 326.436L639.951 322.275L643.247 317.764L648.682 310.659H654.072ZM649.077 331.987L642.793 322.129L646.045 319.404L654.277 331.987H649.077Z" fill="white"/>
<path d="M652.809 350.859V359.311C652.477 359.711 651.964 360.146 651.271 360.615C650.577 361.074 649.684 361.469 648.59 361.801C647.496 362.133 646.173 362.299 644.62 362.299C643.243 362.299 641.988 362.075 640.855 361.625C639.723 361.167 638.746 360.498 637.926 359.619C637.115 358.74 636.49 357.666 636.051 356.396C635.611 355.117 635.392 353.657 635.392 352.016V350.683C635.392 349.042 635.602 347.583 636.021 346.303C636.451 345.024 637.062 343.945 637.853 343.066C638.644 342.187 639.586 341.518 640.68 341.059C641.773 340.6 642.989 340.371 644.327 340.371C646.183 340.371 647.706 340.673 648.897 341.279C650.089 341.875 650.997 342.705 651.622 343.769C652.257 344.824 652.647 346.035 652.794 347.402H648.531C648.424 346.679 648.219 346.049 647.916 345.512C647.613 344.975 647.179 344.555 646.612 344.252C646.056 343.95 645.333 343.798 644.444 343.798C643.712 343.798 643.058 343.95 642.481 344.252C641.915 344.545 641.437 344.98 641.046 345.556C640.655 346.132 640.357 346.845 640.152 347.695C639.947 348.544 639.845 349.531 639.845 350.654V352.016C639.845 353.129 639.952 354.116 640.167 354.975C640.382 355.825 640.699 356.542 641.119 357.128C641.549 357.705 642.076 358.139 642.701 358.432C643.326 358.725 644.054 358.872 644.884 358.872C645.577 358.872 646.153 358.813 646.612 358.696C647.081 358.579 647.457 358.437 647.74 358.271C648.033 358.095 648.258 357.929 648.414 357.773V353.994H644.4V350.859H652.809Z" fill="white"/>
<path d="M652.297 389.401V393.057H640.188V389.401H652.297ZM641.719 370.307V393.057H637.031V370.307H641.719ZM650.719 379.573V383.135H640.188V379.573H650.719ZM652.281 370.307V373.979H640.188V370.307H652.281Z" fill="white"/>
<path d="M648.268 413.032H652.647C652.56 414.468 652.164 415.742 651.461 416.856C650.768 417.969 649.796 418.838 648.546 419.463C647.306 420.088 645.812 420.401 644.063 420.401C642.696 420.401 641.471 420.166 640.387 419.697C639.303 419.219 638.375 418.535 637.604 417.647C636.842 416.758 636.261 415.684 635.86 414.424C635.46 413.164 635.26 411.753 635.26 410.191V408.711C635.26 407.149 635.465 405.737 635.875 404.478C636.295 403.208 636.891 402.129 637.662 401.24C638.443 400.352 639.376 399.668 640.46 399.19C641.544 398.711 642.755 398.472 644.093 398.472C645.87 398.472 647.369 398.794 648.59 399.439C649.82 400.083 650.772 400.972 651.446 402.105C652.13 403.237 652.54 404.526 652.677 405.972H648.282C648.233 405.112 648.062 404.385 647.77 403.789C647.477 403.184 647.032 402.73 646.437 402.427C645.851 402.114 645.069 401.958 644.093 401.958C643.36 401.958 642.721 402.095 642.174 402.368C641.627 402.642 641.168 403.057 640.797 403.613C640.426 404.17 640.147 404.873 639.962 405.723C639.786 406.563 639.698 407.549 639.698 408.682V410.191C639.698 411.294 639.781 412.266 639.947 413.106C640.113 413.936 640.367 414.639 640.709 415.215C641.061 415.781 641.51 416.211 642.057 416.504C642.613 416.787 643.282 416.929 644.063 416.929C644.981 416.929 645.738 416.782 646.334 416.489C646.93 416.196 647.384 415.762 647.696 415.186C648.019 414.609 648.209 413.892 648.268 413.032Z" fill="white"/>
</svg>
